<svg xmlns="http://www.w3.org/2000/svg" width="700" height="700" fill="none"><path fill="#fff" d="M305.556 150.001C305.556 300 290.972 300 152.778 300 14.583 300 0 285.42 0 150.001S14.583 0 152.778.003L375 0c-68.75 14.583-69.444 110.142-69.444 150.001m0 400.002c.627 135.414-14.584 149.999-152.778 149.999C14.583 700.002 0 685.417 0 550.003s14.583-149.998 152.778-149.998c63.539 0 138.891-20.838 182.639-64.588C379.164 291.667 375 325.002 375 325.002s33.333-4.169-10.417 39.581-59.336 118.739-59.027 185.42"/><path fill="#fff" d="M394.445 149.999C394.445 14.583 409.028 0 547.222 0 685.417 0 700 14.583 700 149.999c0 135.415-14.583 149.998-152.778 149.998-68.05 0-138.889 20.836-182.639 64.586S325 375 325 375s-14.583-14.585 10.417-39.583c43.747-43.75 59.028-113.899 59.028-185.418m-.001 399.999C394.444 408.333 409.028 400 547.222 400 685.417 400 700 414.58 700 549.998 700 685.417 685.417 700 547.222 699.997L325 700c69.444-14.583 69.444-110.142 69.444-150.002"/></svg>